<?xml version="1.0" encoding="UTF-8" standalone="no"?>
<svg xmlns="http://www.w3.org/2000/svg" width="256" height="256" viewBox="0 0 256 256">
  <rect width="256" height="256" fill="#4CAF50" rx="50"/>
  <path fill="white" d="M128 50c-42.4 0-78 32.8-78 73.2 0 40.4 35.6 73.2 78 73.2s78-32.8 78-73.2c0-40.4-35.6-73.2-78-73.2zm0 130c-31.6 0-57-24.4-57-54.8s25.4-54.8 57-54.8 57 24.4 57 54.8-25.4 54.8-57 54.8z"/>
  <path fill="white" d="M128 90c-19.8 0-36 16.2-36 36s16.2 36 36 36 36-16.2 36-36-16.2-36-36-36zm0 54c-9.9 0-18-8.1-18-18s8.1-18 18-18 18 8.1 18 18-8.1 18-18 18z"/>
  <path fill="white" d="M178 140h-50c-5.5 0-10 4.5-10 10s4.5 10 10 10h50c5.5 0 10-4.5 10-10s-4.5-10-10-10z"/>
</svg>
